<svg xmlns="http://www.w3.org/2000/svg" style="isolation:isolate" width="587.721" height="439.395">
  <g opacity=".25">
    <path d="M243.681 439.395c5.028-3.076 9.792-6.591 14.291-10.106l199.279-165.652h77.541c29.232 0 52.929 19.672 52.929 43.94v87.879c0 24.267-23.697 43.939-52.929 43.939H243.681zM111.358 0h105.859c29.232 0 52.929 19.672 52.929 43.94v307.576c0 48.534-47.395 87.879-105.859 87.879-58.464 0-105.858-39.345-105.858-87.879V43.94C58.429 19.773 82.247 0 111.358 0zm52.929 384.471c21.924 0 39.697-14.755 39.697-32.955 0-18.2-17.773-32.955-39.697-32.955-21.924 0-39.697 14.755-39.697 32.955 0 18.2 17.773 32.955 39.697 32.955z" class="primary" fill="#3B3B3B"/>
    <path d="M296.61 366.016V117.319l54.782-45.478c9.928-8.251 23.4-12.887 37.448-12.887 14.047 0 27.519 4.636 37.447 12.887l74.895 62.175c9.939 8.241 15.523 19.425 15.523 31.087 0 11.662-5.584 22.845-15.523 31.087L296.61 366.016z" class="secondary" fill="#525252"/>
    <g>
      <path d="M21.957 134.727c29.275-29.276 76.811-29.276 106.086 0 29.276 29.275 29.276 76.811 0 106.087-29.275 29.275-76.811 29.275-106.086 0-29.276-29.276-29.276-76.812 0-106.087z" fill="#525252"/>
      <path d="M35.792 193.371h33.607v33.607h11.202v-33.607h33.607v-11.202H80.601v-33.607H69.399v33.607H35.792v11.202z" fill="#303030"/>
    </g>
  </g>
</svg>
