<svg xmlns="http://www.w3.org/2000/svg" style="isolation:isolate" width="32" height="32">
  <circle vector-effect="non-scaling-stroke" cx="16" cy="16" r="16" fill="#7D7D7D"/>
  <path d="M15.82 26.039a2.077 2.077 0 1 1-.001-4.155 2.077 2.077 0 0 1 .001 4.155zm1.384-7.616a1.385 1.385 0 1 1-2.769 0v-1.952a1.382 1.382 0 0 1 .761-1.246l3.393-1.648c.886-.582 1.385-1.343 1.385-2.077 0-1.427-1.8-2.77-4.154-2.77-1.87 0-3.448.859-3.975 1.98a1.384 1.384 0 0 1-2.492-1.19c.997-2.161 3.586-3.559 6.467-3.559 3.738 0 6.923 2.382 6.923 5.539 0 1.8-1.052 3.406-2.838 4.486l-2.701 1.329v1.108z" class="secondary" fill="#212121"/>
</svg>
