<svg xmlns="http://www.w3.org/2000/svg" width="32.801" height="32">
  <path d="M16.4 0q4.463 0 8.233 2.2 3.769 2.2 5.968 5.968 2.2 3.77 2.2 8.232 0 5.361-3.128 9.642-3.129 4.281-8.084 5.927-.576.106-.854-.15-.276-.256-.276-.64l.01-1.635q.01-1.569.01-2.872 0-2.071-1.11-3.033 1.217-.128 2.188-.384.972-.256 2.008-.832 1.036-.578 1.73-1.42.694-.844 1.131-2.243.438-1.398.438-3.213 0-2.542-1.687-4.4.79-1.943-.17-4.356-.599-.193-1.73.236-1.132.426-1.965.939l-.811.512q-1.987-.556-4.1-.556-2.115 0-4.1.556-.342-.236-.908-.577-.567-.341-1.783-.822-1.218-.48-1.815-.288-.961 2.413-.172 4.356-1.686 1.859-1.686 4.4 0 1.814.438 3.203.437 1.388 1.12 2.242.684.854 1.72 1.43 1.035.578 2.007.834.972.256 2.188.384-.832.77-1.045 2.199-.449.214-.962.32-.512.107-1.217.107-.704 0-1.398-.459t-1.185-1.334q-.406-.684-1.036-1.11-.63-.428-1.057-.513l-.428-.065q-.448 0-.619.097-.171.096-.107.246.064.148.192.298t.278.256l.15.107q.469.214.928.812.46.597.674 1.088l.213.492q.277.811.94 1.312.66.503 1.43.642.768.138 1.484.15.715.01 1.186-.075l.49-.086q0 .812.011 1.89l.01 1.164q0 .385-.276.641-.278.256-.855.149-4.954-1.645-8.083-5.925Q0 21.759 0 16.401q0-4.463 2.2-8.233Q4.4 4.4 8.168 2.2 11.938 0 16.401 0zM6.215 23.555q.064-.15-.149-.256-.214-.065-.278.041-.064.15.15.256.192.13.277-.04zm.662.725q.15-.107-.042-.341-.214-.192-.342-.064-.15.107.043.341.213.214.34.065zm.64.961q.193-.15 0-.406-.17-.276-.362-.128-.192.107 0 .385t.363.15zm.897.897q.172-.17-.085-.406-.256-.256-.427-.063-.192.17.086.405.256.256.426.064zm1.218.533q.064-.233-.278-.34-.32-.086-.406.149-.085.235.278.32.321.129.406-.128zm1.345.108q0-.277-.363-.236-.341 0-.341.236 0 .277.363.236.341 0 .341-.236zm1.24-.213q-.044-.236-.385-.193-.342.065-.3.32.044.257.385.171.341-.085.3-.298z" fill="#7d7d7d"/>
</svg>
